<svg xmlns="http://www.w3.org/2000/svg" viewBox="0 0 600 340" fill="none">
  <defs>
    <linearGradient id="bg4" x1="0" y1="0" x2="600" y2="340" gradientUnits="userSpaceOnUse">
      <stop offset="0%" stop-color="#0a0810"/>
      <stop offset="100%" stop-color="#14101e"/>
    </linearGradient>
    <radialGradient id="glow4" cx="50%" cy="50%" r="40%">
      <stop offset="0%" stop-color="#4c1d95" stop-opacity="0.35"/>
      <stop offset="100%" stop-color="#0a0810" stop-opacity="0"/>
    </radialGradient>
  </defs>
  <rect width="600" height="340" fill="url(#bg4)"/>
  <rect width="600" height="340" fill="url(#glow4)"/>
  <line x1="0" y1="85" x2="600" y2="85" stroke="rgba(255,255,255,0.03)" stroke-width="1"/>
  <line x1="0" y1="170" x2="600" y2="170" stroke="rgba(255,255,255,0.03)" stroke-width="1"/>
  <line x1="0" y1="255" x2="600" y2="255" stroke="rgba(255,255,255,0.03)" stroke-width="1"/>
  <line x1="150" y1="0" x2="150" y2="340" stroke="rgba(255,255,255,0.03)" stroke-width="1"/>
  <line x1="300" y1="0" x2="300" y2="340" stroke="rgba(255,255,255,0.03)" stroke-width="1"/>
  <line x1="450" y1="0" x2="450" y2="340" stroke="rgba(255,255,255,0.03)" stroke-width="1"/>
  <!-- bar chart icon -->
  <circle cx="300" cy="155" r="52" fill="rgba(255,255,255,0.06)" stroke="rgba(255,255,255,0.10)" stroke-width="1.5"/>
  <!-- bars -->
  <rect x="270" y="162" width="10" height="18" rx="2" fill="rgba(255,255,255,0.40)"/>
  <rect x="286" y="148" width="10" height="32" rx="2" fill="rgba(255,255,255,0.55)"/>
  <rect x="302" y="137" width="10" height="43" rx="2" fill="rgba(255,255,255,0.70)"/>
  <rect x="318" y="153" width="10" height="27" rx="2" fill="rgba(255,255,255,0.50)"/>
  <!-- baseline -->
  <line x1="264" y1="182" x2="336" y2="182" stroke="rgba(255,255,255,0.25)" stroke-width="1.5" stroke-linecap="round"/>
  <!-- trend line -->
  <path d="M270 170 L286 158 L302 143 L320 155" stroke="rgba(167,139,250,0.6)" stroke-width="2" stroke-linecap="round" stroke-linejoin="round" fill="none"/>
  <text x="300" y="232" text-anchor="middle" font-family="Inter, system-ui, sans-serif" font-size="13" font-weight="500" fill="rgba(255,255,255,0.30)" letter-spacing="0.08em">DIGITAL PRODUCT</text>
</svg>
